<?xml version="1.0" standalone="no"?>
<!DOCTYPE svg PUBLIC "-//W3C//DTD SVG 20010904//EN"
 "http://www.w3.org/TR/2001/REC-SVG-20010904/DTD/svg10.dtd">
<svg version="1.0" xmlns="http://www.w3.org/2000/svg"
 width="200.000000pt" height="200.000000pt" viewBox="0 0 200.000000 200.000000"
 preserveAspectRatio="xMidYMid meet">
<metadata>
Created by potrace 1.14, written by Peter Selinger 2001-2017
</metadata>
<g transform="translate(0.000000,200.000000) scale(0.100000,-0.100000)"
fill="#000000" stroke="none">
<path d="M430 1914 c-33 -9 -43 -47 -45 -166 -1 -75 -5 -121 -13 -131 -8 -9
-12 -42 -11 -88 2 -64 -1 -75 -20 -90 -24 -19 -29 -18 -133 25 -18 8 -58 -24
-58 -47 0 -7 18 -37 41 -67 52 -69 79 -122 84 -165 4 -28 -1 -41 -25 -69 -33
-37 -38 -67 -15 -90 8 -8 15 -17 15 -20 0 -8 -65 -26 -115 -31 -70 -7 -94 -34
-60 -69 21 -21 111 -12 185 17 l58 24 17 -43 c11 -28 36 -61 71 -92 l53 -48
-28 -17 c-43 -25 -83 -90 -83 -133 0 -64 36 -73 120 -30 31 16 31 16 44 -12
18 -36 49 -39 103 -8 53 32 57 32 53 4 -4 -29 -78 -84 -131 -99 -84 -22 -184
16 -220 86 -25 49 -30 134 -13 209 15 65 5 90 -34 84 -31 -4 -51 -60 -55 -158
-6 -131 39 -221 136 -275 71 -39 177 -42 253 -7 27 12 50 21 51 20 2 -2 -3
-30 -9 -63 -29 -141 38 -233 197 -268 167 -37 364 -9 447 65 60 53 84 141 61
222 -6 22 -9 41 -7 43 1 2 21 -6 43 -17 135 -65 298 -12 363 116 48 98 30 314
-28 322 -43 6 -51 -11 -35 -81 41 -172 -22 -289 -161 -304 -69 -7 -178 43
-195 91 -16 41 -1 46 50 15 64 -38 91 -38 110 0 l14 30 40 -20 c61 -30 83 -31
101 -4 27 41 -4 119 -65 163 l-39 29 43 34 c24 19 56 57 71 84 15 28 28 51 29
52 0 2 26 -7 56 -18 77 -30 145 -33 170 -8 15 15 17 24 9 39 -6 11 -14 20 -18
21 -4 1 -27 2 -52 4 -25 1 -60 9 -79 17 -33 15 -33 15 -12 30 30 21 34 52 9
75 -65 59 -54 125 41 252 44 59 46 63 31 90 -14 28 -38 33 -73 15 -60 -32 -86
-35 -108 -13 -16 16 -20 32 -19 72 3 97 1 107 -23 118 -21 10 -23 16 -24 118
-1 132 -16 170 -69 171 -38 0 -66 -32 -71 -80 -8 -81 -22 -119 -41 -116 -29 6
-125 -23 -164 -49 l-37 -24 -6 22 c-21 78 -34 104 -72 147 -45 50 -95 80 -135
80 -81 0 -213 -158 -199 -239 2 -14 -11 -9 -39 15 -22 18 -139 55 -169 54 -14
-1 -31 -2 -38 -1 -11 1 -21 47 -32 144 -1 4 -10 16 -21 27 -19 19 -37 23 -70
14z m617 -123 c53 -39 76 -90 78 -174 2 -74 10 -89 49 -89 34 0 33 -11 -9 -83
-83 -142 -105 -211 -105 -337 0 -45 5 -63 20 -78 11 -11 25 -20 30 -20 6 0 4
-13 -5 -30 -19 -37 -19 -73 0 -110 15 -28 14 -29 -13 -32 -15 -2 -42 3 -60 10
-27 10 -41 11 -70 1 -31 -11 -80 -13 -90 -5 -1 2 5 17 14 35 16 32 13 66 -11
124 -5 12 -3 17 8 17 26 0 39 53 33 132 -9 106 -29 169 -76 244 -38 60 -70
132 -70 156 0 5 13 -1 29 -13 23 -17 33 -19 49 -10 25 13 32 34 28 86 -6 76
28 144 93 187 33 23 31 23 78 -11z m-535 -186 c37 -78 102 -155 132 -155 26 0
45 33 40 68 -6 37 5 25 16 -20 7 -24 33 -79 60 -123 26 -45 53 -99 59 -121 11
-42 22 -114 17 -114 -2 0 -14 21 -27 48 -24 46 -83 110 -211 227 -86 79 -123
152 -133 262 -3 35 -2 36 8 13 6 -14 23 -52 39 -85z m996 43 c-4 -35 -19 -85
-33 -113 -23 -48 -47 -74 -201 -219 -40 -37 -85 -92 -103 -124 l-32 -57 6 40
c12 88 19 109 66 187 28 45 56 103 64 128 11 36 22 41 16 7 -3 -18 21 -47 39
-47 42 0 140 137 174 243 11 34 13 16 4 -45z m-125 -24 c-4 -10 -9 -12 -15 -6
-12 12 -1 35 12 27 5 -3 6 -13 3 -21z m204 -228 c20 -27 54 -46 83 -46 30 0
31 -13 4 -67 -30 -60 -36 -137 -14 -178 12 -23 12 -27 0 -35 -10 -6 -31 1 -65
21 -108 65 -177 92 -240 92 -33 0 -71 -3 -84 -8 l-24 -7 22 31 c12 17 50 55
84 84 94 80 165 156 184 196 l18 36 6 -47 c4 -26 15 -58 26 -72z m-988 -89
c43 -36 88 -79 100 -95 l20 -29 -73 0 c-79 -1 -136 -20 -238 -83 -42 -26 -78
-38 -78 -26 0 2 7 19 15 38 20 49 12 119 -22 181 l-29 53 29 2 c49 4 88 31
106 72 l16 39 38 -43 c20 -25 73 -74 116 -109z m148 -231 l46 -23 -36 -7 c-74
-14 -120 -95 -92 -161 16 -38 56 -76 83 -78 19 -1 20 -3 7 -17 -8 -8 -16 -32
-18 -53 -2 -21 -6 -39 -8 -41 -2 -2 -24 -8 -49 -14 -37 -10 -47 -9 -56 3 -16
21 -53 24 -98 8 -55 -19 -54 -11 1 18 37 18 49 30 51 51 3 28 0 32 -92 90 -30
20 -44 34 -35 36 25 8 49 35 49 54 0 11 -14 33 -30 50 -17 17 -30 32 -28 33
18 15 127 70 151 75 48 11 102 3 154 -24z m714 -1 c29 -15 64 -34 76 -43 l23
-14 -30 -28 c-17 -15 -30 -35 -30 -44 0 -18 34 -56 51 -56 21 0 -14 -31 -69
-63 -30 -16 -56 -36 -59 -44 -7 -19 13 -63 29 -63 7 0 27 -10 43 -21 17 -12
21 -18 10 -14 -64 23 -90 24 -116 5 -24 -17 -30 -18 -72 -5 -25 7 -48 11 -51
8 -3 -4 -6 2 -7 13 -2 42 -11 78 -22 88 -7 6 -10 10 -8 9 9 -5 61 29 80 53 43
54 13 162 -49 180 -39 11 -39 11 -52 13 -16 1 36 34 77 48 47 17 116 8 176
-22z m-657 -121 c21 -21 20 -37 -3 -58 -15 -14 -24 -15 -40 -6 -27 14 -29 66
-3 73 29 8 30 8 46 -9z m434 4 c17 -17 15 -55 -4 -66 -36 -20 -71 10 -59 49 5
15 15 22 46 28 3 0 10 -4 17 -11z m-218 -197 c0 -14 46 -29 61 -20 28 17 58
10 65 -15 8 -33 -13 -70 -34 -60 -43 17 -64 16 -88 -7 l-24 -23 -30 22 c-32
24 -60 28 -76 12 -26 -26 -62 19 -49 61 6 18 12 20 39 14 47 -11 68 -8 89 14
18 18 47 19 47 2z m-76 -186 c26 -20 76 -19 104 1 30 21 37 13 24 -26 -10 -26
-8 -34 8 -50 11 -11 25 -17 33 -14 15 5 47 -75 47 -118 l0 -27 -25 25 c-21 21
-28 23 -46 13 -21 -11 -22 -25 -7 -89 2 -12 -12 -15 -82 -15 -71 0 -84 3 -81
15 16 57 13 80 -10 89 -26 10 -59 -10 -59 -36 0 -7 -5 -13 -11 -13 -8 0 -9 14
-5 43 4 23 9 61 13 84 5 38 7 41 28 33 17 -7 27 -4 40 10 14 16 15 24 6 51 -6
18 -11 34 -11 35 0 8 16 3 34 -11z m283 -18 c11 -18 20 -49 21 -70 1 -21 8
-61 17 -89 33 -112 5 -177 -93 -215 -66 -25 -264 -25 -342 1 -103 34 -124 72
-103 180 8 39 16 91 19 116 6 62 14 86 24 70 9 -15 3 -91 -10 -126 -38 -98 20
-196 133 -225 69 -17 193 -7 248 19 84 41 119 139 84 232 -17 44 -32 140 -22
140 3 0 14 -15 24 -33z"/>
</g>
</svg>
